<svg width="320" height="60" viewBox="0 0 320 60" xmlns="http://www.w3.org/2000/svg">
  <!-- Five-lobed leaf icon (filled with medium blue, darker outline) -->
  <g id="leaf-icon">
    <!-- Leaf fill (medium blue #3B82F6) -->
    <path d="M 30 8 
             C 33 6 36 5 39 6
             C 42 7 45 10 47 14
             C 48 16 48 18 47 20
             C 45 22 42 23 39 24
             C 42 27 45 30 47 34
             C 48 38 48 42 47 45
             C 45 49 42 51 39 52
             C 36 54 33 55 30 56
             C 27 55 24 54 21 52
             C 18 51 15 49 13 45
             C 12 42 12 38 13 34
             C 15 30 18 27 21 24
             C 18 23 15 22 13 20
             C 12 18 12 16 13 14
             C 15 10 18 7 21 6
             C 24 5 27 6 30 8 Z" 
          fill="#3B82F6" 
          stroke="#2563EB" 
          stroke-width="2" 
          stroke-linecap="round" 
          stroke-linejoin="round"/>
    
    <!-- Internal veins (darker blue) -->
    <line x1="30" y1="32" x2="30" y2="8" stroke="#2563EB" stroke-width="2" stroke-linecap="round"/>
    <line x1="30" y1="32" x2="47" y2="14" stroke="#2563EB" stroke-width="2" stroke-linecap="round"/>
    <line x1="30" y1="32" x2="13" y2="14" stroke="#2563EB" stroke-width="2" stroke-linecap="round"/>
    <line x1="30" y1="32" x2="47" y2="45" stroke="#2563EB" stroke-width="2" stroke-linecap="round"/>
    <line x1="30" y1="32" x2="13" y2="45" stroke="#2563EB" stroke-width="2" stroke-linecap="round"/>
  </g>
  
  <!-- KAIROVA BIOTECH text (dark blue/purplish-blue, bold uppercase) -->
  <text x="75" y="38" font-family="'Arial', 'Helvetica', sans-serif" font-size="16" font-weight="700" fill="#1E40AF" letter-spacing="2">
    KAIROVA BIOTECH
  </text>
</svg>


